<?xml version="1.0" encoding="UTF-8"?>
<svg version="1.1" xmlns="http://www.w3.org/2000/svg" width="1728" height="302">
<path d="M0 0 C0.85521744 0.00091141 1.71043488 0.00182281 2.59156799 0.00276184 C3.46946487 -0.00152328 4.34736176 -0.00580841 5.25186157 -0.01022339 C7.11044959 -0.01597191 8.96906012 -0.01646312 10.82765198 -0.01213074 C13.67447757 -0.00897327 16.52026181 -0.03241428 19.36695862 -0.05778503 C21.17099376 -0.06005819 22.97503171 -0.06076145 24.77906799 -0.05973816 C25.6322612 -0.06894791 26.48545441 -0.07815765 27.36450195 -0.08764648 C33.32276304 -0.04091369 33.32276304 -0.04091369 35.38729858 1.61691284 C37.6547449 4.41980908 39.06863678 7.67688571 40.61109924 10.91291809 C40.98779755 11.69002136 41.36449585 12.46712463 41.75260925 13.26777649 C43.00793758 15.86035428 44.25464959 18.4569864 45.50172424 21.05354309 C46.39244684 22.8960119 47.28390063 24.73812738 48.17604065 26.57991028 C49.58382859 29.48661841 50.99106492 32.39358294 52.39604187 35.301651 C57.12691517 45.09352111 61.90650267 54.8612765 66.69236755 64.62635803 C69.1033005 69.54650583 71.5112551 74.46811112 73.91969299 79.38948059 C76.85227545 85.38094769 79.78526497 91.37221518 82.7190094 97.3631134 C89.07280318 110.33859736 95.42106288 123.31675457 101.75172424 136.30354309 C102.11022461 137.03881226 102.46872498 137.77408142 102.83808899 138.53163147 C104.94168108 142.84789448 107.03719849 147.16795288 109.12672424 151.49104309 C109.85895203 152.99610413 109.85895203 152.99610413 110.60597229 154.53157043 C111.03305481 155.4192511 111.46013733 156.30693176 111.90016174 157.22151184 C112.2628717 157.97198792 112.62558167 158.72246399 112.99928284 159.49568176 C113.75172424 161.30354309 113.75172424 161.30354309 113.75172424 163.30354309 C114.41172424 163.30354309 115.07172424 163.30354309 115.75172424 163.30354309 C116.01042297 162.46774719 116.2691217 161.63195129 116.53565979 160.77082825 C117.85948871 156.9962813 119.48145136 153.42759725 121.20875549 149.82698059 C121.71746437 148.75542221 121.71746437 148.75542221 122.2364502 147.66221619 C122.96423919 146.12993421 123.69353744 144.59836834 124.42420959 143.06745911 C126.36471844 139.00109674 128.29369982 134.92926591 130.22438049 130.85823059 C130.61225739 130.04114624 131.00013428 129.22406189 131.39976501 128.38221741 C134.804186 121.20632971 138.16394017 114.01066503 141.50172424 106.80354309 C142.02234436 105.67980286 142.54296448 104.55606262 143.07936096 103.39826965 C144.11845442 101.15429406 145.15719522 98.91015514 146.1955719 96.66584778 C148.85577911 90.91806403 151.52235889 85.17323995 154.18922424 79.42854309 C154.72394348 78.27660461 155.25866272 77.12466614 155.80958557 75.93782043 C161.20605851 64.31701114 166.62475197 52.70661325 172.04669189 41.09767151 C174.25913895 36.36001691 176.46869324 31.62101824 178.67750549 26.88166809 C179.64085351 24.81522235 180.60425243 22.74880035 181.56767273 20.68238831 C182.18494634 19.35813503 182.80203546 18.03379573 183.41893005 16.70936584 C184.27415209 14.8733373 185.13010957 13.03765138 185.98609924 11.20198059 C186.71651428 9.63456116 186.71651428 9.63456116 187.46168518 8.03547668 C187.88739807 7.1339386 188.31311096 6.23240051 188.75172424 5.30354309 C189.09751526 4.54251282 189.44330627 3.78148254 189.79957581 2.99739075 C190.75172424 1.30354309 190.75172424 1.30354309 192.75172424 0.30354309 C195.72967696 0.20430921 198.68376266 0.16373296 201.66188049 0.17073059 C202.54452072 0.16977386 203.42716095 0.16881714 204.33654785 0.16783142 C206.20353771 0.1671504 208.07052994 0.16899925 209.93751526 0.173172 C212.80597713 0.17852769 215.67428285 0.17322111 218.54273987 0.16682434 C220.35328709 0.16748501 222.16383422 0.16876594 223.97438049 0.17073059 C225.26965416 0.16769424 225.26965416 0.16769424 226.59109497 0.16459656 C232.63676985 0.1885887 232.63676985 0.1885887 233.75172424 1.30354309 C233.84869341 3.4804692 233.8735917 5.66060702 233.87197876 7.83969116 C233.8732604 8.87615332 233.8732604 8.87615332 233.87456793 9.93355411 C233.87622471 12.26597529 233.87069814 14.59832572 233.86524963 16.93074036 C233.86496778 18.5958913 233.86512546 20.26104237 233.86569214 21.92619324 C233.86598018 26.46112415 233.86008241 30.99602885 233.85311818 35.53095365 C233.84688572 40.26487678 233.84628093 44.99880045 233.84509277 49.73272705 C233.84197914 58.70356409 233.83376532 67.67438901 233.82374328 76.6452207 C233.81258314 86.85544701 233.80707195 97.06567389 233.80204785 107.27590477 C233.79158273 128.28512582 233.77323685 149.29433025 233.75172424 170.30354309 C219.56172424 170.30354309 205.37172424 170.30354309 190.75172424 170.30354309 C190.42172424 148.52354309 190.09172424 126.74354309 189.75172424 104.30354309 C185.80461487 112.23256653 181.85750549 120.16158997 177.79078674 128.33088684 C174.97675506 133.9762179 172.16197008 139.62116837 169.34608841 145.26557636 C165.69435316 152.58569789 162.04443319 159.90670664 158.40113831 167.23103333 C155.5174789 173.02820659 152.62964019 178.82327481 149.73671377 184.61582953 C148.20436576 187.68444449 146.67416482 190.75408898 145.14896011 193.82626152 C143.44834726 197.25155644 141.73840937 200.67214535 140.02760315 204.09236145 C139.52050308 205.11734741 139.01340302 206.14233337 138.49093628 207.19837952 C138.02540848 208.12531113 137.55988068 209.05224274 137.08024597 210.00726318 C136.67650064 210.81751922 136.27275532 211.62777525 135.85677528 212.4625845 C134.75172424 214.30354309 134.75172424 214.30354309 132.75172424 215.30354309 C127.8111986 215.58708942 122.86978423 215.61725556 117.92189026 215.65364075 C116.27200708 215.67018988 114.6221953 215.69746666 112.97267151 215.735672 C110.59005166 215.79055458 108.20911053 215.8123302 105.82594299 215.82698059 C105.09244125 215.84964996 104.35893951 215.87231934 103.60321045 215.89567566 C99.7923618 215.88002331 97.97261596 215.47506711 94.93336487 213.11506653 C92.82922518 210.40342008 91.26109117 207.88202615 89.77125549 204.79573059 C89.25281067 203.73749084 88.73436584 202.6792511 88.20021057 201.58894348 C87.66033508 200.46351135 87.12045959 199.33807922 86.56422424 198.17854309 C85.39910942 195.79887641 84.2324347 193.41997286 83.06422424 191.04182434 C82.49574768 189.87989563 81.92727112 188.71796692 81.34156799 187.52082825 C79.3200415 183.42996889 77.21238741 179.39145518 75.06422424 175.36604309 C70.29217131 166.38843646 65.6449289 157.34821172 61.00172424 148.30354309 C53.65845693 134.00155904 46.27951887 119.71874612 38.86476135 105.45368958 C38.15111616 104.07508172 37.4459647 102.69202401 36.75172424 101.30354309 C36.7474923 101.92014738 36.74326036 102.53675167 36.73890018 103.17204094 C36.63569044 118.16076863 36.52706732 133.1494464 36.41238499 148.13809013 C36.35705714 155.38642122 36.30357587 162.63475722 36.25440979 169.88313293 C36.21156257 176.19925647 36.16528323 182.51534383 36.11484569 188.83141148 C36.08824907 192.17712018 36.06339612 195.52282172 36.04265022 198.86857224 C36.01865496 202.5993884 35.98859376 206.33010847 35.95704651 210.06086731 C35.95129105 211.17576538 35.94553558 212.29066345 35.93960571 213.43934631 C35.92981689 214.45179413 35.92002808 215.46424194 35.90994263 216.50737 C35.90349008 217.39044767 35.89703753 218.27352535 35.89038944 219.18336296 C35.75172424 221.30354309 35.75172424 221.30354309 34.75172424 223.30354309 C28.78859258 223.32818883 22.8254903 223.34637709 16.86231995 223.35847473 C14.83204126 223.36351587 12.80176622 223.37034866 10.77149963 223.37898254 C7.85995078 223.39105776 4.94844974 223.39677343 2.03688049 223.40119934 C0.66657433 223.40894127 0.66657433 223.40894127 -0.73141479 223.4168396 C-2.90403003 223.41703477 -5.07654872 223.36566114 -7.24827576 223.30354309 C-9.08799011 221.46382874 -8.37638756 218.87459945 -8.38668126 216.42570072 C-8.38513266 215.57396918 -8.38358405 214.72223764 -8.38198853 213.84469604 C-8.38425408 212.94687123 -8.38651964 212.04904642 -8.38885385 211.12401479 C-8.39522442 208.09147824 -8.39436254 205.05898602 -8.39353943 202.02644348 C-8.39652901 199.8620803 -8.39993107 197.69771765 -8.40371704 195.53335571 C-8.41258152 189.63677164 -8.41489617 183.74020205 -8.41553283 177.84361196 C-8.41647983 172.93025477 -8.4201557 168.016901 -8.42370492 163.10354513 C-8.43185872 151.51697044 -8.43428831 139.93040352 -8.43357849 128.34382629 C-8.43297739 116.37016386 -8.44353351 104.39656478 -8.45932215 92.42291266 C-8.47237369 82.1613729 -8.4777634 71.89984789 -8.47712308 61.63829988 C-8.4768674 55.50136418 -8.47975717 49.36446845 -8.49030113 43.22754097 C-8.49994212 37.45826291 -8.50008895 31.68906337 -8.4927845 25.91978264 C-8.49173367 23.79688274 -8.49413083 21.67397806 -8.50014496 19.55108643 C-8.50779778 16.66375482 -8.50326499 13.77669893 -8.49551392 10.88937378 C-8.50065748 10.03987296 -8.50580104 9.19037213 -8.51110047 8.31512886 C-8.46781334 1.07004819 -7.20329834 0.08680441 0 0 Z " fill="#05B153" transform="translate(687.2482757568359,37.69645690917969)"/>
<path d="M0 0 C1.31328781 -0.0099852 1.31328781 -0.0099852 2.65310669 -0.02017212 C4.50748592 -0.03030782 6.36190169 -0.03498886 8.21630859 -0.03466797 C11.05237116 -0.03903487 13.88686989 -0.07532617 16.72265625 -0.11328125 C18.52343217 -0.11915049 20.3242155 -0.12311917 22.125 -0.125 C22.97303192 -0.13937103 23.82106384 -0.15374207 24.6947937 -0.16854858 C30.58771326 -0.12288442 30.58771326 -0.12288442 33.61816406 2.16552734 C35.81801205 5.19287233 37.98747339 8.22722241 40.0703125 11.3359375 C41.04992589 12.77922677 42.03043703 14.221907 43.01171875 15.6640625 C43.52879395 16.42525391 44.04586914 17.18644531 44.57861328 17.97070312 C47.3549391 22.03247366 50.18189131 26.05858619 53.0078125 30.0859375 C53.5961084 30.92511719 54.1844043 31.76429687 54.79052734 32.62890625 C55.99245996 34.34325029 57.19460927 36.05744243 58.39697266 37.77148438 C61.33256234 41.95766875 64.26374859 46.14693342 67.1953125 50.3359375 C68.36195731 52.00261947 69.528624 53.66928612 70.6953125 55.3359375 C105.6953125 105.3359375 105.6953125 105.3359375 107.44799805 107.83984375 C108.60562537 109.49355085 109.76333911 111.14719746 110.92114258 112.80078125 C113.97685105 117.16521721 117.03070923 121.53093346 120.08203125 125.8984375 C120.71818359 126.80851562 121.35433594 127.71859375 122.00976562 128.65625 C123.22906908 130.40065494 124.44784656 132.14542769 125.66601562 133.890625 C126.21580078 134.67695313 126.76558594 135.46328125 127.33203125 136.2734375 C127.81373779 136.96308594 128.29544434 137.65273437 128.79174805 138.36328125 C130.22677907 140.38016256 131.70699537 142.35818264 133.1953125 144.3359375 C133.19862265 143.6059511 133.20193279 142.8759647 133.20534325 142.1238575 C133.28647941 124.38118857 133.37854076 106.63860735 133.48283958 88.89605904 C133.53301233 80.31597816 133.5794546 71.73590706 133.6171875 63.15576172 C133.65007573 55.67938672 133.68988919 48.20308659 133.73810256 40.72679412 C133.76339922 36.76627211 133.78517101 32.80579997 133.79865646 28.84521866 C133.81144827 25.12044354 133.83347103 21.39583917 133.86269569 17.67115784 C133.87179413 16.30134294 133.87746696 14.93150052 133.87952614 13.56165695 C133.88283257 11.69683798 133.89945674 9.83205656 133.9168396 7.96731567 C133.92237036 6.92200243 133.92790112 5.87668919 133.93359947 4.79969978 C134.1953125 2.3359375 134.1953125 2.3359375 136.1953125 0.3359375 C139.11295707 0.14820752 141.93402063 0.08040655 144.8515625 0.10546875 C146.13867126 0.10615608 146.13867126 0.10615608 147.45178223 0.1068573 C149.2675108 0.10988076 151.08323674 0.11776987 152.89892578 0.13012695 C155.68401237 0.14836351 158.46876624 0.15063679 161.25390625 0.15039062 C163.01562789 0.15530655 164.77734726 0.16113519 166.5390625 0.16796875 C167.37554321 0.16908157 168.21202393 0.1701944 169.07385254 0.17134094 C174.96318193 0.21987222 174.96318193 0.21987222 177.1953125 1.3359375 C177.21863776 30.13348661 177.23628983 58.93103432 177.24712467 87.72859097 C177.25228843 101.09876783 177.25930237 114.46893832 177.27075195 127.83911133 C177.28069637 139.48792956 177.28716535 151.13674355 177.28940099 162.78556591 C177.29070851 168.95768544 177.29379696 175.12979284 177.30104256 181.30190849 C177.30779896 187.10398048 177.30993024 192.90603526 177.30842018 198.70811081 C177.30869668 200.84433015 177.31070404 202.98055002 177.31451797 205.11676598 C177.3194493 208.01975501 177.31831287 210.92267796 177.31556702 213.82566833 C177.31993628 215.11114843 177.31993628 215.11114843 177.32439381 216.42259783 C177.30943371 222.22181629 177.30943371 222.22181629 176.1953125 223.3359375 C170.41543639 223.92225303 164.63998306 224.1642388 158.8347168 224.34521484 C156.88490456 224.42165277 154.93606153 224.53045167 152.98999023 224.67333984 C137.36423629 225.79680367 137.36423629 225.79680367 132.20654297 221.79153442 C128.53277313 217.7953961 125.9044763 213.24127625 123.36087036 208.47070312 C121.79388172 205.60070104 119.93443477 202.99196399 118.015625 200.34765625 C116.78331742 198.57328932 115.55154467 196.79855083 114.3203125 195.0234375 C109.29220818 187.78470111 104.25395436 180.55336743 99.1953125 173.3359375 C93.49671875 165.20450134 87.82342833 157.05569801 82.15625 148.90234375 C77.28169971 141.89164884 72.38963202 134.89344088 67.48876953 127.90112305 C62.38177475 120.61110146 57.29946035 113.30402037 52.2265625 105.99023438 C46.26354251 97.4042404 40.2244444 88.87720769 34.1953125 80.3359375 C33.8653125 110.0359375 33.5353125 139.7359375 33.1953125 170.3359375 C18.6753125 170.3359375 4.1553125 170.3359375 -10.8046875 170.3359375 C-10.84978874 148.46599802 -10.88665004 126.59609603 -10.90831184 104.7261219 C-10.91863595 94.57211775 -10.93271787 84.41814449 -10.95556641 74.26416016 C-10.97546565 65.41665689 -10.98839568 56.56917598 -10.99286449 47.72165096 C-10.99547776 43.03451004 -11.00164349 38.34743311 -11.01614761 33.66031265 C-11.02967684 29.25271628 -11.03391964 24.84521053 -11.03090286 20.43759537 C-11.03145512 18.8161978 -11.03546023 17.19479734 -11.04309845 15.57341766 C-11.05298699 13.36695751 -11.05067897 11.16084368 -11.04519653 8.95437622 C-11.04704012 7.71733004 -11.04888371 6.48028385 -11.05078316 5.20575142 C-10.49375435 -1.28997075 -5.17773459 0.01352432 0 0 Z " fill="#05B153" transform="translate(1126.8046875,37.6640625)"/>
<path d="M0 0 C1.31328781 -0.0099852 1.31328781 -0.0099852 2.65310669 -0.02017212 C4.50748592 -0.03030782 6.36190169 -0.03498886 8.21630859 -0.03466797 C11.05237116 -0.03903487 13.88686989 -0.07532617 16.72265625 -0.11328125 C18.52343217 -0.11915049 20.3242155 -0.12311917 22.125 -0.125 C22.97303192 -0.13937103 23.82106384 -0.15374207 24.6947937 -0.16854858 C30.58771326 -0.12288442 30.58771326 -0.12288442 33.61816406 2.16552734 C35.81801205 5.19287233 37.98747339 8.22722241 40.0703125 11.3359375 C41.04992589 12.77922677 42.03043703 14.221907 43.01171875 15.6640625 C43.52879395 16.42525391 44.04586914 17.18644531 44.57861328 17.97070312 C47.35493938 22.03247408 50.18191882 26.05856645 53.0078125 30.0859375 C53.59755859 30.92729248 54.18730469 31.76864746 54.79492188 32.63549805 C55.99829104 34.35205918 57.20190497 36.06844875 58.40576172 37.78466797 C67.03916086 50.09285637 75.64822063 62.41761738 84.22949219 74.76220703 C90.29331868 83.48280429 96.38189561 92.18590194 102.47753906 100.88427734 C104.80079281 104.200098 107.12251703 107.51698804 109.4440918 110.83398438 C110.60163242 112.48775216 111.75934426 114.14140013 112.91723633 115.79492188 C115.99875605 120.19572403 119.07737178 124.59852597 122.15234375 129.00390625 C122.79751953 129.92751953 123.44269531 130.85113281 124.10742188 131.80273438 C125.35303162 133.5860174 126.59785205 135.36985207 127.84179688 137.15429688 C128.39802734 137.95029297 128.95425781 138.74628906 129.52734375 139.56640625 C130.26561401 140.62444458 130.26561401 140.62444458 131.01879883 141.70385742 C132.09603523 143.29003084 132.09603523 143.29003084 133.1953125 144.3359375 C133.19862265 143.6059511 133.20193279 142.8759647 133.20534325 142.1238575 C133.28647941 124.38118857 133.37854076 106.63860735 133.48283958 88.89605904 C133.53301233 80.31597816 133.5794546 71.73590706 133.6171875 63.15576172 C133.65007573 55.67938672 133.68988919 48.20308659 133.73810256 40.72679412 C133.76339922 36.76627211 133.78517101 32.80579997 133.79865646 28.84521866 C133.81144827 25.12044354 133.83347103 21.39583917 133.86269569 17.67115784 C133.87179413 16.30134294 133.87746696 14.93150052 133.87952614 13.56165695 C133.88283257 11.69683798 133.89945674 9.83205656 133.9168396 7.96731567 C133.92237036 6.92200243 133.92790112 5.87668919 133.93359947 4.79969978 C134.1953125 2.3359375 134.1953125 2.3359375 136.1953125 0.3359375 C139.11280385 0.13595426 141.93333179 0.05618863 144.8515625 0.0703125 C145.70963501 0.06839905 146.56770752 0.0664856 147.45178223 0.06451416 C149.26749972 0.06315206 151.08322695 0.06685022 152.89892578 0.07519531 C155.684141 0.08589459 158.46871118 0.07530097 161.25390625 0.0625 C163.01562643 0.06382159 164.77734621 0.06638397 166.5390625 0.0703125 C167.37554321 0.06626404 168.21202393 0.06221558 169.07385254 0.05804443 C174.96539416 0.10601916 174.96539416 0.10601916 177.1953125 2.3359375 C177.39105645 5.22946158 177.46007686 8.02717555 177.44255066 10.92176819 C177.44496507 11.82115299 177.44737949 12.72053779 177.44986707 13.64717668 C177.4555299 16.67900086 177.44682153 19.71061674 177.43823242 22.74243164 C177.43930466 24.90856483 177.44124246 27.07469775 177.44398499 29.24082947 C177.44884556 35.1373125 177.44116277 41.03372022 177.43103194 46.93019414 C177.42227225 53.08769351 177.42400847 59.24519037 177.4243927 65.4026947 C177.42345518 75.74381781 177.414759 86.08491164 177.40112305 96.42602539 C177.38539245 108.4002854 177.38012503 120.3744947 177.3808586 132.34876543 C177.38146791 143.84548011 177.37637158 155.34218428 177.36806679 166.8388958 C177.36452644 171.74200968 177.36270247 176.64511984 177.36217308 181.54823494 C177.36117212 187.31586834 177.35509586 193.08347457 177.34500694 198.85109901 C177.34207406 200.97441695 177.34085816 203.09773801 177.34143448 205.22105789 C177.34192148 208.10643144 177.33630615 210.99172763 177.32902527 213.87709045 C177.33057387 214.728822 177.33212247 215.58055354 177.333718 216.45809513 C177.30949103 222.22175897 177.30949103 222.22175897 176.1953125 223.3359375 C170.41543639 223.92225303 164.63998306 224.1642388 158.8347168 224.34521484 C156.88490456 224.42165277 154.93606153 224.53045167 152.98999023 224.67333984 C137.34001702 225.79854499 137.34001702 225.79854499 132.18841553 221.76434326 C128.5110253 217.74610766 125.8572651 213.1885137 123.31143188 208.39654541 C121.91180239 205.81251394 120.26490093 203.47355256 118.5234375 201.109375 C117.49696011 199.64353419 116.47091429 198.17739107 115.4453125 196.7109375 C114.87296875 195.89302734 114.300625 195.07511719 113.7109375 194.23242188 C108.51264656 186.79908989 103.33431307 179.351917 98.15722656 171.90380859 C93.84820195 165.70633783 89.5272762 159.51739255 85.1953125 153.3359375 C80.18022819 146.17970989 75.18283549 139.01140021 70.1953125 131.8359375 C62.88504724 121.31964638 55.5444289 110.82513091 48.1953125 100.3359375 C43.5753125 93.7359375 38.9553125 87.1359375 34.1953125 80.3359375 C33.8653125 110.0359375 33.5353125 139.7359375 33.1953125 170.3359375 C18.6753125 170.3359375 4.1553125 170.3359375 -10.8046875 170.3359375 C-10.84978874 148.46599802 -10.88665004 126.59609603 -10.90831184 104.7261219 C-10.91863595 94.57211775 -10.93271787 84.41814449 -10.95556641 74.26416016 C-10.97546565 65.41665689 -10.98839568 56.56917598 -10.99286449 47.72165096 C-10.99547776 43.03451004 -11.00164349 38.34743311 -11.01614761 33.66031265 C-11.02967684 29.25271628 -11.03391964 24.84521053 -11.03090286 20.43759537 C-11.03145512 18.8161978 -11.03546023 17.19479734 -11.04309845 15.57341766 C-11.05298699 13.36695751 -11.05067897 11.16084368 -11.04519653 8.95437622 C-11.04704012 7.71733004 -11.04888371 6.48028385 -11.05078316 5.20575142 C-10.49375435 -1.28997075 -5.17773459 0.01352432 0 0 Z " fill="#04B153" transform="translate(309.8046875,37.6640625)"/>
<path d="M0 0 C6.44495236 5.86908235 11.93153063 11.95082064 16.58886719 19.36206055 C17.60207031 20.96307617 17.60207031 20.96307617 18.63574219 22.59643555 C35.42923133 50.05202048 39.71767162 84.16617669 32.58886719 115.36206055 C25.13292215 143.93278439 9.33772727 169.04333752 -16.44482422 184.26000977 C-42.51047738 198.86894425 -75.54947595 201.93511644 -104.25341797 194.01245117 C-118.57978702 189.6941159 -130.99335246 182.99834325 -142.41113281 173.36206055 C-143.42175781 172.59893555 -144.43238281 171.83581055 -145.47363281 171.04956055 C-166.32695766 151.97098675 -178.17471557 122.75579618 -179.53588867 94.79980469 C-180.55964071 59.79131198 -171.52042568 28.52247686 -147.16113281 2.67456055 C-108.17918256 -34.59765505 -40.31470931 -35.61489107 0 0 Z M-119.50097656 34.97143555 C-134.15658742 53.31342705 -138.67433696 76.49677843 -136.18408203 99.45532227 C-133.33459313 119.03990468 -123.75714817 136.34215494 -107.90332031 148.24487305 C-93.32414009 157.57367325 -74.27445216 160.60383947 -57.42089844 156.92797852 C-40.56012594 152.76882784 -27.65048774 143.81547768 -18.09863281 129.11206055 C-10.45342742 115.99937494 -7.0111909 102.18501821 -7.09863281 87.11206055 C-7.10354736 86.10353027 -7.10846191 85.095 -7.11352539 84.0559082 C-7.42216506 64.31246565 -13.9138959 46.06471795 -27.59863281 31.61206055 C-38.30518408 21.3729167 -51.5759113 15.33486196 -66.41113281 14.36206055 C-67.47267578 14.2847168 -67.47267578 14.2847168 -68.55566406 14.20581055 C-88.20280709 13.4238347 -105.94512919 20.83104444 -119.50097656 34.97143555 Z " fill="#05B153" transform="translate(1670.4111328125,63.637939453125)"/>
<path d="M0 0 C3.48417392 0.00541747 6.96822229 -0.00000082 10.45239258 -0.00634766 C12.66528349 -0.00568786 14.87817432 -0.00440874 17.09106445 -0.00244141 C18.13364914 -0.00446564 19.17623383 -0.00648987 20.25041199 -0.00857544 C21.20933853 -0.00542328 22.16826508 -0.00227112 23.15625 0.00097656 C24.42313911 0.00216995 24.42313911 0.00216995 25.71562195 0.00338745 C27.7668457 0.13037109 27.7668457 0.13037109 29.7668457 1.13037109 C29.7668457 14.66037109 29.7668457 28.19037109 29.7668457 42.13037109 C23.00700195 42.18644531 23.00700195 42.18644531 16.1105957 42.24365234 C13.22123768 42.27399985 10.33193628 42.30519152 7.44262695 42.33935547 C2.87674159 42.39326544 -1.68903182 42.44438525 -6.25512695 42.47680664 C-9.94472359 42.50320279 -13.63393451 42.54384649 -17.32328796 42.59355736 C-18.71672186 42.60998503 -20.11022208 42.62164667 -21.5037384 42.627985 C-42.23763997 42.73164189 -63.46130475 46.77355708 -79.0456543 61.50537109 C-95.12524505 78.85137353 -96.13415317 100.27294445 -95.4284668 122.74023438 C-94.42139894 140.22041465 -86.74230138 154.23130558 -74.1472168 166.09521484 C-57.28410285 180.41945848 -34.14921875 181.08456787 -13.2331543 182.13037109 C-13.2331543 163.98037109 -13.2331543 145.83037109 -13.2331543 127.13037109 C-27.4231543 127.13037109 -41.6131543 127.13037109 -56.2331543 127.13037109 C-56.2331543 112.94037109 -56.2331543 98.75037109 -56.2331543 84.13037109 C-27.8531543 84.13037109 0.5268457 84.13037109 29.7668457 84.13037109 C29.80714874 118.69694011 29.80714874 118.69694011 29.81567383 133.13623047 C29.82161699 143.12248241 29.82861914 153.10872594 29.84228516 163.0949707 C29.85223149 170.36655879 29.85869901 177.63814008 29.8609342 184.90973479 C29.86224139 188.76236631 29.86532778 192.61497838 29.87257576 196.46760368 C29.87933519 200.08969781 29.88146283 203.71176438 29.87995338 207.33386421 C29.88036207 209.30534338 29.88575767 211.2768195 29.89126587 213.24829102 C29.8898912 214.41081894 29.88851654 215.57334686 29.88710022 216.77110291 C29.88848291 218.2962094 29.88848291 218.2962094 29.88989353 219.85212612 C29.7668457 222.13037109 29.7668457 222.13037109 28.7668457 223.13037109 C26.97740392 223.24525604 25.18342287 223.29003007 23.39038086 223.30737305 C21.65928574 223.3266259 21.65928574 223.3266259 19.89321899 223.3462677 C17.99375015 223.3573481 17.99375015 223.3573481 16.0559082 223.36865234 C14.74520355 223.37672409 13.4344989 223.38479584 12.08407593 223.39311218 C9.28448618 223.40819433 6.48492208 223.41799226 3.68530273 223.42553711 C0.86931602 223.43423384 -1.94615048 223.4546901 -4.76196289 223.48706055 C-44.6050586 223.93510336 -83.77344875 219.34361783 -113.9206543 190.94287109 C-134.21214775 169.94965453 -140.68658373 141.02578575 -140.6081543 112.63037109 C-140.60761047 111.88636047 -140.60706665 111.14234985 -140.60650635 110.37579346 C-140.51650123 83.50026638 -134.45069229 57.73240358 -116.2331543 37.13037109 C-115.44295898 36.23318359 -114.65276367 35.33599609 -113.83862305 34.41162109 C-93.55761545 12.76232963 -63.87288045 4.29646206 -35.2331543 1.13037109 C-34.3769751 1.03320801 -33.5207959 0.93604492 -32.63867188 0.8359375 C-21.78733101 -0.19439736 -10.88924544 -0.02024168 0 0 Z " fill="#04B153" transform="translate(1453.233154296875,37.86962890625)"/>
<path d="M0 0 C0.97314651 -0.00637985 1.94629303 -0.0127597 2.94892883 -0.01933289 C4.01016464 -0.02044571 5.07140045 -0.02155853 6.16479492 -0.02270508 C7.26635422 -0.02603348 8.36791351 -0.02936188 9.50285339 -0.03279114 C11.85085635 -0.03786849 14.19886656 -0.04019922 16.546875 -0.04003906 C20.06482762 -0.04218721 23.58244638 -0.06022536 27.1003418 -0.0793457 C63.97392989 -0.17303996 100.38678848 3.75750527 130.33276367 27.14526367 C130.97858398 27.63639648 131.6244043 28.1275293 132.28979492 28.63354492 C151.59025927 44.10005699 159.89747529 69.64863406 162.89526367 93.28979492 C166.17860384 124.68756606 161.97269688 158.56917577 141.95776367 184.02026367 C137.47664413 189.20083755 132.62992665 193.80821149 127.33276367 198.14526367 C126.61088867 198.73823242 125.88901367 199.33120117 125.14526367 199.94213867 C114.07512991 208.32161492 100.80686097 213.79555397 87.52026367 217.52026367 C86.72974609 217.74657471 85.93922852 217.97288574 85.12475586 218.20605469 C65.38025049 223.34278952 45.332586 223.57922674 25.06671143 223.4095459 C22.29251013 223.39018466 19.51837288 223.38637043 16.74411297 223.38283157 C13.42336598 223.37770833 10.10270129 223.3631976 6.78198242 223.34838867 C5.54373215 223.34413879 4.30548187 223.33988892 3.02970886 223.33551025 C1.89954849 223.32590271 0.76938812 223.31629517 -0.39501953 223.30639648 C-1.39233597 223.29956848 -2.3896524 223.29274048 -3.41719055 223.28570557 C-5.66723633 223.14526367 -5.66723633 223.14526367 -6.66723633 222.14526367 C-6.76241436 219.37587401 -6.79277898 216.63149208 -6.78076172 213.86181641 C-6.78090775 212.9936026 -6.78105377 212.12538879 -6.78120422 211.23086548 C-6.78050478 208.34683781 -6.77271095 205.46287388 -6.76489258 202.57885742 C-6.76302851 200.584885 -6.76160455 198.59091213 -6.76060486 196.59693909 C-6.75677881 191.33780665 -6.74694778 186.07870164 -6.73590088 180.81958008 C-6.72389448 174.51538917 -6.71928493 168.21118911 -6.71344757 161.90699005 C-6.70373607 152.31972882 -6.68458012 142.73252783 -6.66723633 133.14526367 C7.52276367 133.14526367 21.71276367 133.14526367 36.33276367 133.14526367 C36.33276367 149.31526367 36.33276367 165.48526367 36.33276367 182.14526367 C66.10787328 180.31398141 66.10787328 180.31398141 93.33276367 169.14526367 C94.48518555 168.47043945 94.48518555 168.47043945 95.66088867 167.78198242 C107.90427636 159.61169025 114.63332607 144.97837593 117.46948242 130.96948242 C121.18859844 108.96204221 118.81527889 86.68551381 106.77807617 67.69213867 C95.64102284 52.02566173 77.3872739 46.31066482 59.33276367 43.14526367 C51.74276367 42.81526367 44.15276367 42.48526367 36.33276367 42.14526367 C36.33276367 58.31526367 36.33276367 74.48526367 36.33276367 91.14526367 C22.14276367 91.14526367 7.95276367 91.14526367 -6.66723633 91.14526367 C-6.66723633 61.44526367 -6.66723633 31.74526367 -6.66723633 1.14526367 C-4.24780329 -0.06445285 -2.70315508 0.01203734 0 0 Z " fill="#04B153" transform="translate(29.667236328125,37.854736328125)"/>
<path d="M0 0 C1.9969635 0.15344238 1.9969635 0.15344238 4 1 C5.15232849 2.55651855 5.15232849 2.55651855 6.04858398 4.54492188 C6.37937958 5.2705835 6.71017517 5.99624512 7.05099487 6.74389648 C8.51780482 10.23099574 9.90665422 13.73446254 11.22265625 17.28125 C11.83982099 18.91927941 12.45700965 20.55729981 13.07421875 22.1953125 C13.39696777 23.05672852 13.7197168 23.91814453 14.05224609 24.80566406 C20.35320891 41.61026185 26.86016425 58.32672824 33.5 75 C39.78902754 90.80121134 45.95008261 106.64261288 51.96420288 122.55038452 C57.44128938 137.02718511 63.09555023 151.42887445 68.8125 165.8125 C80.00635041 194.00610507 80.00635041 194.00610507 83.97494507 204.33676147 C84.66311736 206.1241703 85.35936712 207.90846275 86.0559082 209.69262695 C86.65278442 211.25823364 86.65278442 211.25823364 87.26171875 212.85546875 C87.77158325 214.18034302 87.77158325 214.18034302 88.29174805 215.53198242 C89 218 89 218 89 223 C74.81 223 60.62 223 46 223 C43.49681967 217.36784425 41.13640792 211.89729778 39.1015625 206.11328125 C38.833936 205.36180817 38.56630951 204.61033508 38.29057312 203.83609009 C37.70656324 202.19451015 37.12421907 200.55233686 36.54336548 198.90963745 C35.60146666 196.24594773 34.65505318 193.58389619 33.70776367 190.92211914 C30.2870508 181.30261026 26.88484062 171.67655788 23.48460007 162.04979801 C21.5033217 156.44063859 19.51982271 150.83226667 17.53531265 145.22424984 C16.06278965 141.06210752 14.59391887 136.89869904 13.12778378 132.73430252 C12.19978525 130.10071791 11.26876184 127.46820951 10.33701515 124.83594894 C9.69693378 123.02469943 9.06052372 121.21215379 8.42424011 119.39956665 C6.20336935 113.13492011 3.82640479 107.01761856 1 101 C0.68078331 101.93005859 0.68078331 101.93005859 0.3551178 102.87890625 C-2.40556239 110.92048409 -5.17019047 118.96070137 -7.9375 127 C-8.16122913 127.65000095 -8.38495827 128.30000191 -8.61546707 128.96969986 C-15.81054741 149.86993383 -23.10273864 170.73330526 -30.52905273 191.55273438 C-31.18490158 193.39316913 -31.84058767 195.23366189 -32.49609375 197.07421875 C-32.80292587 197.93498016 -33.109758 198.79574158 -33.42588806 199.68258667 C-35.74418983 206.21292835 -37.94253197 212.77697714 -40.07446289 219.37036133 C-41 222 -41 222 -42 223 C-43.38160115 223.0927833 -44.76788038 223.11747043 -46.15258789 223.11352539 C-47.03342545 223.11344986 -47.914263 223.11337433 -48.8217926 223.11329651 C-49.77907761 223.10813522 -50.73636261 223.10297394 -51.72265625 223.09765625 C-52.69786728 223.0962413 -53.67307831 223.09482635 -54.67784119 223.09336853 C-57.80609143 223.08775133 -60.93427123 223.07519593 -64.0625 223.0625 C-66.17773334 223.05748722 -68.29296781 223.05292393 -70.40820312 223.04882812 C-75.60549296 223.03777631 -80.80274145 223.02102146 -86 223 C-85.42105477 217.45287571 -83.98948056 212.75137821 -81.96484375 207.5703125 C-81.65500549 206.76040359 -81.34516724 205.95049469 -81.02593994 205.11604309 C-80.00361606 202.44954847 -78.97071422 199.78729174 -77.9375 197.125 C-77.21016029 195.23531251 -76.48336291 193.34541621 -75.75708008 191.45532227 C-73.5161837 185.63241697 -71.26016055 179.81545093 -69 174 C-68.66105713 173.12748596 -68.32211426 172.25497192 -67.97290039 171.35601807 C-64.38654135 162.12691158 -60.78411081 152.9041288 -57.17578125 143.68359375 C-52.72047014 132.29748163 -48.29480658 120.89993384 -43.875 109.5 C-43.48590454 108.49669647 -43.09680908 107.49339294 -42.69592285 106.45968628 C-38.11430089 94.64416614 -33.54401137 82.82432085 -28.98796082 70.99891663 C-28.25346611 69.09260767 -27.51878852 67.1863693 -26.78405762 65.28015137 C-26.29564909 64.01294146 -25.80724576 62.74572955 -25.31884766 61.47851562 C-25.07792263 60.85340843 -24.8369976 60.22830124 -24.58877182 59.5842514 C-22.9693078 55.38173618 -21.35233051 51.17826899 -19.73583984 46.97460938 C-15.3615754 35.61060362 -10.95309215 24.26010529 -6.47265625 12.9375 C-5.84272011 11.33007935 -5.84272011 11.33007935 -5.20005798 9.69018555 C-4.80927567 8.70832275 -4.41849335 7.72645996 -4.01586914 6.71484375 C-3.50280968 5.41728149 -3.50280968 5.41728149 -2.97938538 4.09350586 C-2 2 -2 2 0 0 Z " fill="#05B153" transform="translate(1019,38)"/>
<path d="M0 0 C1.99993896 0.12852478 1.99993896 0.12852478 4 1 C5.12554932 2.71827698 5.12554932 2.71827698 6.00097656 4.94360352 C6.49748718 6.16975876 6.49748718 6.16975876 7.00402832 7.42068481 C7.4970343 8.69744583 7.4970343 8.69744583 8 10 C8.64787855 11.5872535 9.2959916 13.17441131 9.94433594 14.76147461 C10.62638492 16.47428833 11.30629859 18.18795347 11.984375 19.90234375 C12.3566925 20.84018204 12.72901001 21.77802032 13.11260986 22.74427795 C14.32748365 25.80773685 15.53901362 28.8725025 16.75 31.9375 C17.17039551 32.99976807 17.59079102 34.06203613 18.02392578 35.15649414 C24.12432915 50.57804653 30.10009669 66.04231624 35.96594238 81.55441284 C41.34028107 95.75843179 46.88509904 109.88947546 52.5 124 C59.30363214 141.09829481 65.96292459 158.24395957 72.46875 175.45776367 C75.40252777 183.21495861 78.35650522 190.96004557 81.4375 198.66015625 C81.83479309 199.65585129 81.83479309 199.65585129 82.2401123 200.67166138 C83.45006748 203.70096626 84.6691565 206.7259806 85.90429688 209.74511719 C86.52401367 211.2886084 86.52401367 211.2886084 87.15625 212.86328125 C87.69475586 214.18259644 87.69475586 214.18259644 88.24414062 215.52856445 C89 218 89 218 89 223 C74.81 223 60.62 223 46 223 C43.49681967 217.36784425 41.13640792 211.89729778 39.1015625 206.11328125 C38.833936 205.36180817 38.56630951 204.61033508 38.29057312 203.83609009 C37.70656324 202.19451015 37.12421907 200.55233686 36.54336548 198.90963745 C35.60146666 196.24594773 34.65505318 193.58389619 33.70776367 190.92211914 C30.2870508 181.30261026 26.88484062 171.67655788 23.48460007 162.04979801 C21.5033217 156.44063859 19.51982271 150.83226667 17.53531265 145.22424984 C16.06278965 141.06210752 14.59391887 136.89869904 13.12778378 132.73430252 C12.19978525 130.10071791 11.26876184 127.46820951 10.33701515 124.83594894 C9.69693378 123.02469943 9.06052372 121.21215379 8.42424011 119.39956665 C6.20336935 113.13492011 3.82640479 107.01761856 1 101 C0.68078331 101.93005859 0.68078331 101.93005859 0.3551178 102.87890625 C-9.12542338 130.49474901 -18.62631114 158.1024112 -28.375 185.625 C-28.89330887 187.09042236 -28.89330887 187.09042236 -29.42208862 188.58544922 C-30.41226021 191.38318136 -31.40482197 194.18005183 -32.3984375 196.9765625 C-32.67586288 197.75987946 -32.95328827 198.54319641 -33.23912048 199.35025024 C-36.06237721 207.27267168 -39.04540765 215.12108706 -42 223 C-56.52 223 -71.04 223 -86 223 C-84.87496515 215.12475603 -84.87496515 215.12475603 -83.67163086 212.00048828 C-83.26769859 210.93588631 -83.26769859 210.93588631 -82.85560608 209.84977722 C-82.56165451 209.09755386 -82.26770294 208.34533051 -81.96484375 207.5703125 C-81.5002903 206.35599297 -81.5002903 206.35599297 -81.02635193 205.11714172 C-80.00388166 202.45028466 -78.97083141 199.7876655 -77.9375 197.125 C-77.20795923 195.22945458 -76.47896489 193.33369878 -75.75048828 191.43774414 C-73.51197097 185.62062662 -71.25853152 179.80937245 -69 174 C-68.66812683 173.1463385 -68.33625366 172.292677 -67.99432373 171.41314697 C-65.14399665 164.08556575 -62.28508612 156.76135108 -59.41894531 149.43994141 C-53.62860317 134.64452744 -47.90332796 119.82433939 -42.1875 105 C-40.3113511 100.13535758 -38.43501207 95.27078851 -36.55859375 90.40625 C-36.09523621 89.20500992 -35.63187866 88.00376984 -35.15447998 86.76612854 C-27.46463337 66.83311291 -19.76273468 46.90476315 -12 27 C-11.70268982 26.23762024 -11.40537964 25.47524048 -11.09906006 24.6897583 C-9.38936131 20.30968928 -7.66822739 15.93431478 -5.9375 11.5625 C-5.54981445 10.57378906 -5.16212891 9.58507812 -4.76269531 8.56640625 C-4.4169043 7.70015625 -4.07111328 6.83390625 -3.71484375 5.94140625 C-3.42730225 5.21638916 -3.13976074 4.49137207 -2.84350586 3.74438477 C-2 2 -2 2 0 0 Z " fill="#05B153" transform="translate(582,38)"/>
<path d="M0 0 C14.19 0 28.38 0 43 0 C43 60.72 43 121.44 43 184 C50.26 184 57.52 184 65 184 C65.99 184.33 66.98 184.66 68 185 C68.02464928 190.25105442 68.04283568 195.50207545 68.05493164 200.75317383 C68.05997218 202.54094021 68.06680454 204.32870245 68.07543945 206.11645508 C68.0875173 208.68051168 68.09323094 211.24451397 68.09765625 213.80859375 C68.10281754 214.6127623 68.10797882 215.41693085 68.11329651 216.24546814 C68.11349215 218.16401715 68.06201983 220.08245368 68 222 C66.14652632 223.85347368 63.51474674 223.12654303 61.04824829 223.13552856 C59.76559586 223.13249222 59.76559586 223.13249222 58.45703125 223.12939453 C57.56116302 223.13114685 56.6652948 223.13289917 55.74227905 223.13470459 C52.76566663 223.13912447 49.78911308 223.13618464 46.8125 223.1328125 C44.75366199 223.1334855 42.69482406 223.13445549 40.63598633 223.13571167 C36.31493373 223.13718883 31.99390177 223.13503351 27.67285156 223.13037109 C22.12063454 223.1246738 16.56846586 223.12795271 11.01625061 223.13394356 C6.76305779 223.13754869 2.50987651 223.13641081 -1.74331665 223.13381577 C-3.79114793 223.13314636 -5.83898023 223.13397538 -7.8868103 223.13629532 C-10.74357908 223.13882106 -13.60026843 223.13498236 -16.45703125 223.12939453 C-17.31213287 223.13141876 -18.1672345 223.13344299 -19.04824829 223.13552856 C-24.88573761 223.11426239 -24.88573761 223.11426239 -26 222 C-26.12574967 219.35716101 -26.18864406 216.74185185 -26.203125 214.09765625 C-26.20882507 213.30475693 -26.21452515 212.5118576 -26.22039795 211.69493103 C-26.22986098 210.01448914 -26.23638709 208.33402858 -26.24023438 206.65356445 C-26.24994664 204.07665823 -26.2809594 201.50054715 -26.3125 198.92382812 C-26.31902907 197.29427559 -26.32427992 195.66471733 -26.328125 194.03515625 C-26.3404718 193.26115982 -26.3528186 192.48716339 -26.36553955 191.68971252 C-26.35644531 189.51586914 -26.35644531 189.51586914 -26 186 C-18.76759429 181.1783962 -8.69226987 184 0 184 C0 123.28 0 62.56 0 0 Z " fill="#03B152" transform="translate(227,38)"/>
<path d="M0 0 C5.9999335 3.52143336 9.24234651 8.44291946 11.1875 15.0078125 C12.33350155 21.20849948 11.145175 27.15151452 7.625 32.375 C2.99837761 37.7632531 -1.48138342 40.46049429 -8.5625 41.35546875 C-14.65026235 41.39774488 -19.51180989 39.87365291 -24.25 36.0625 C-29.55681815 29.35093587 -32.07154644 25.01217586 -31.375 16.375 C-29.52198625 9.3313152 -26.65887893 4.24200242 -20.375 0.375 C-13.92621381 -2.68079738 -6.55714041 -2.986174 0 0 Z " fill="#0BB357" transform="translate(1608.375,130.625)"/>
</svg>
